PathFileType	4	(X/Y/Z)	S01_0009_Gait_markers.trc
DataRate	CameraRate	NumFrames	NumMarkers	Units	OrigDataRate	OrigDataStartFrame	OrigNumFrames
250.000000	250.000000	4	54	mm	250.000000	128	343
Frame#	Time	HEAD_ANT			R_HEAD			L_HEAD			C7			R_BACK			L_BACK			STERNUM			R_ACROMION			R_HUM_PROX			R_HUM_ANT			R_HUM_POST			R_ELBOW_LAT			R_ELBOW_MED			R_FOREARM			R_WIRST_LAT			R_WRITS_MED			R_HAND			L_ACROMION			L_HUM_PROX			L_HUM_ANT			L_HUM_POST			L_ELBOW_LAT			L_ELBOW_MED			L_FOREARM			L_WRIST_LAT			L_WIRST_MED			L_HAND			R_ILIAC			SACRUM			L_ILIAC			R_GTROCH			R_THIGH__1			R_THIGH_2			R_THIGH_3			R_THIGH_4			R_SHANK_1			R_SHANK_2			R_SHANK_3			R_SHANK_4			R_HEEL			R_FOOT_LAT			R_FOOT_MED			L_GTROCH			L_THIGH_1			L_THIGH_2			L_THIGH_3			L_THIGH_4			L_SHANK_1			L_SHANK_2			L_SHANK_3			L_SHANK_4			L_HEEL			L_FOOT_LAT			L_FOOT_MED			
		X1	Y1	Z1	X2	Y2	Z2	X3	Y3	Z3	X4	Y4	Z4	X5	Y5	Z5	X6	Y6	Z6	X7	Y7	Z7	X8	Y8	Z8	X9	Y9	Z9	X10	Y10	Z10	X11	Y11	Z11	X12	Y12	Z12	X13	Y13	Z13	X14	Y14	Z14	X15	Y15	Z15	X16	Y16	Z16	X17	Y17	Z17	X18	Y18	Z18	X19	Y19	Z19	X20	Y20	Z20	X21	Y21	Z21	X22	Y22	Z22	X23	Y23	Z23	X24	Y24	Z24	X25	Y25	Z25	X26	Y26	Z26	X27	Y27	Z27	X28	Y28	Z28	X29	Y29	Z29	X30	Y30	Z30	X31	Y31	Z31	X32	Y32	Z32	X33	Y33	Z33	X34	Y34	Z34	X35	Y35	Z35	X36	Y36	Z36	X37	Y37	Z37	X38	Y38	Z38	X39	Y39	Z39	X40	Y40	Z40	X41	Y41	Z41	X42	Y42	Z42	X43	Y43	Z43	X44	Y44	Z44	X45	Y45	Z45	X46	Y46	Z46	X47	Y47	Z47	X48	Y48	Z48	X49	Y49	Z49	X50	Y50	Z50	X51	Y51	Z51	X52	Y52	Z52	X53	Y53	Z53	X54	Y54	Z54	

129	0.512	845.5537109375	1750.008911132812	-271.3701477050777	790.9229125976562	1694.40673828125	-194.4844055175778	786.1757202148438	1703.593139648438	-342.1390380859371	654.2283935546875	1527.080932617188	-267.4233093261715	588.8887329101562	1330.74609375	-193.2184753417966	577.9559326171875	1333.6591796875	-336.6557617187497	834.8137817382812	1368.518188476562	-287.7932434082028	745.8622436523438	1479.106323242188	-105.1297760009762	744.7593383789062	1318.811279296875	-12.64313316345186	817.8728637695312	1243.676513671875	-28.0641727447507	704.2140502929688	1226.885498046875	13.44659805297879	768.4932861328125	1128.992309570312	2.957127332687628	722.1304321289062	1120.923583984375	-67.84986114501928	910.0905151367188	981.7726440429688	-44.84999084472634	953.0009765625	933.3753662109375	-100.6595382690428	906.8723754882812	887.305419921875	-50.56569671630839	996.5404663085938	848.4407348632812	-58.9212989807127	719.5036010742188	1485.493408203125	-441.9603271484372	677.6990966796875	1322.189453125	-539.8893432617184	733.9921264648438	1237.89892578125	-550.2144775390623	610.2059936523438	1249.10205078125	-558.4516601562498	662.79443359375	1140.968872070313	-574.8367919921873	614.6101684570312	1138.28759765625	-512.253723144531	758.5613403320312	961.3728637695314	-577.6577148437498	796.338134765625	899.8670043945314	-532.5112304687498	740.84619140625	879.1939697265626	-587.764221191406	819.6574096679688	826.5744628906251	-588.501770019531	729.0050048828125	1078.271240234375	-114.2523803710935	598.4266967773438	1050.127197265625	-283.5718688964841	713.9366455078125	1078.720703125	-456.1487121582029	672.11328125	938.3386840820312	-102.3464126586912	658.009521484375	661.8912963867188	-130.1813964843749	716.1925048828125	667.572998046875	-124.1563034057616	703.3775634765625	567.4302368164062	-161.6061706542968	640.830322265625	584.0228271484375	-153.2853240966795	577.9326171875	356.8717041015626	-161.8560028076171	629.8739624023438	328.9983215332032	-174.8951873779296	613.247802734375	246.9284362792969	-197.5671081542968	551.3442993164062	262.2331237792969	-189.6133117675781	485.0138244628906	63.720443725586	-283.8746337890625	639.8865356445312	18.4083518981934	-190.324462890625	702.0391235351562	31.72064781188971	-287.1636962890625	693.12158203125	960.4876098632814	-467.2148437499998	882.93408203125	708.7803955078126	-462.5375366210936	826.7291259765625	708.7265014648439	-482.5162048339842	846.6836547851562	606.1290893554689	-456.0064697265624	905.8240966796875	630.1890869140626	-442.0871276855468	869.4925537109375	348.5862731933595	-446.6231079101562	810.4780883789062	334.2204589843751	-445.6560363769531	799.0448608398438	248.9099884033204	-429.3592834472656	863.3742065429688	247.3863830566407	-425.2932434082031	748.0238647460938	59.17694091796883	-354.4596862792969	916.2532348632812	34.90093231201182	-434.4306030273438	956.75341796875	48.95832824707039	-343.6584167480469	
130	0.516	851.2354125976562	1749.376953125	-271.4978027343746	796.60400390625	1693.635131835938	-194.6964263916012	791.6818237304688	1702.892822265625	-342.2231445312496	659.8677368164062	1526.521240234375	-267.5382690429684	594.3562622070312	1330.3232421875	-193.1139678955075	583.5028076171875	1333.0126953125	-336.2648925781247	838.431640625	1366.709716796875	-285.2504577636716	751.6836547851562	1478.436645507812	-105.3629684448239	750.7073974609375	1318.444946289062	-12.0647783279416	824.0368041992188	1243.258056640625	-28.19990730285617	710.5631103515625	1226.31005859375	13.54739284515408	774.9296875	1128.53759765625	2.907165050506842	728.529296875	1120.303588867188	-67.83847808837865	917.2108154296875	982.0759887695312	-45.68329620361306	960.246337890625	934.015380859375	-101.4021530151365	914.5225830078125	887.5831298828125	-51.28365325927714	1004.467651367188	849.2499389648438	-60.01249313354473	724.7435913085938	1484.81103515625	-442.1826477050778	682.6473999023438	1321.515991210938	-539.7026367187497	738.6546630859375	1237.078857421875	-550.2487182617185	615.0886840820312	1248.557250976563	-558.6908569335935	667.5280151367188	1140.251831054688	-574.8173217773435	619.1624755859375	1137.74658203125	-512.008117675781	762.9700317382812	960.4970092773439	-577.8840332031248	800.6051635742188	899.0616455078126	-532.7179565429685	745.036865234375	878.4476928710939	-587.888000488281	823.6754150390625	825.7854003906251	-589.1251831054685	733.5685424804688	1077.514038085938	-114.3078918457029	603.6399536132812	1049.50390625	-283.863830566406	719.0843505859375	1078.002807617188	-456.2572631835935	676.8131103515625	937.9180297851562	-102.5227584838865	660.9832153320312	661.8455810546875	-130.2511596679686	719.4093627929688	667.33203125	-124.220245361328	705.76220703125	567.1552124023438	-161.730255126953	643.366455078125	583.9613037109375	-153.4249877929686	579.153564453125	357.2086181640626	-161.9005584716796	630.9148559570312	328.9664916992188	-175.2281951904296	614.179443359375	247.2001190185547	-197.7251892089843	552.288330078125	262.6926574707032	-189.8107910156249	485.3280944824219	64.40090179443365	-284.2196044921875	639.8093872070312	18.45859909057621	-190.4338836669922	702.3146362304688	31.66709709167487	-287.0458374023438	698.3945922851562	959.8233642578126	-467.410705566406	888.2430419921875	708.3247070312501	-460.8738403320311	832.0328979492188	708.1197509765626	-480.7169189453123	852.5445556640625	605.7901611328126	-455.4894714355468	911.5655517578125	629.9918823242189	-441.6318969726561	879.8059692382812	348.2201538085939	-446.3797607421874	821.0914916992188	332.383514404297	-444.8343811035156	811.7766723632812	246.757064819336	-428.5120544433593	876.0935668945312	246.8948516845704	-424.7084960937499	765.7125244140625	56.04618835449227	-353.7576293945312	934.1771240234375	34.86695098876963	-434.2006225585938	974.7324829101562	49.69553756713875	-343.4274291992188	
131	0.52	856.9099731445312	1748.755737304688	-271.7787170410152	802.385009765625	1692.961791992188	-194.6986694335934	797.273681640625	1702.203002929688	-342.4741516113277	665.5435791015625	1525.756591796875	-267.6026916503903	600.0819702148438	1329.85009765625	-192.9634094238278	589.0179443359375	1332.214233398438	-335.985656738281	843.8540649414062	1365.815795898438	-285.6286926269528	757.5343627929688	1477.765380859375	-105.508148193359	756.9869995117188	1317.672241210938	-12.82214164733857	830.1599731445312	1242.872314453125	-28.33456802368136	716.8587646484375	1225.73681640625	13.68154716491726	781.3349609375	1127.949951171875	2.827220678329718	733.755859375	1119.4638671875	-67.35234832763648	924.26708984375	982.4364013671875	-46.19335174560525	967.412353515625	934.5885620117188	-102.136405944824	922.0833740234375	887.7808837890625	-51.98471832275371	1012.279907226562	850.1830444335938	-60.97046279907207	730.2493286132812	1484.072265625	-442.4301147460934	687.7263793945312	1320.734130859375	-539.7915039062497	743.8298950195312	1236.31640625	-550.3852539062498	619.9667358398438	1247.690063476563	-558.2916870117185	669.7982788085938	1140.547607421875	-575.7987060546873	624.1970825195312	1137.082641601562	-511.7453308105466	767.25390625	959.8112182617189	-578.8377685546873	804.9442138671875	898.1254882812501	-533.1197509765623	749.1409912109375	877.6493530273439	-588.1325073242185	827.7814331054688	824.6647949218751	-589.2893066406248	738.6800537109375	1076.833251953125	-114.2529449462888	609.1432495117188	1048.918579101562	-284.1532287597654	724.7428588867188	1077.221313476562	-456.1748962402341	681.572509765625	937.4947509765625	-102.9250793457029	664.1455078125	662.1083984375	-130.1518402099608	722.5166625976562	667.0948486328125	-124.4581146240233	708.3333129882812	566.6661987304688	-161.6865081787108	645.9879150390625	584.1104125976562	-153.4757690429686	580.4686279296875	357.5188598632813	-162.0193328857421	632.1491088867188	329.0675964355469	-175.3016357421874	615.1355590820312	247.3854980468751	-197.7786254882812	553.2709350585938	263.1242980957032	-189.9726562499999	485.63134765625	65.14228820800787	-284.5884094238281	639.7398681640625	18.47704505920414	-190.5823059082031	702.5166625976562	31.60248184204108	-287.0208129882812	703.8956909179688	959.0258789062501	-467.4969177246091	893.8732299804688	706.6774902343751	-461.8631896972655	837.97265625	706.5537109375001	-480.3429260253905	858.23291015625	605.0601806640626	-454.7810058593749	917.0867309570312	629.7304077148439	-441.2639160156249	890.1211547851562	347.9583740234376	-445.6799316406249	831.671142578125	330.6570434570314	-444.2900695800781	824.5045776367188	244.7088165283204	-427.6604919433593	889.0037841796875	246.402313232422	-424.1750488281249	783.4771728515625	53.43297576904305	-352.7176818847656	952.0921630859375	34.9544563293458	-433.7809448242188	992.7417602539062	50.4210739135743	-343.4034729003906	
132	0.524	862.59326171875	1747.963745117188	-271.8029174804684	808.0910034179688	1692.215576171875	-195.0899505615231	803.0108032226562	1701.455810546875	-342.8503417968746	671.2802124023438	1525.033813476562	-267.6527709960934	605.486572265625	1329.273559570312	-192.8371429443357	594.39501953125	1331.51416015625	-335.8847045898435	848.091552734375	1364.444946289062	-284.907775878906	763.3740234375	1476.963623046875	-105.7624664306637	763.0165405273438	1317.046142578125	-12.82544612884492	836.24853515625	1242.342895507812	-28.42716407775851	723.1060791015625	1225.057983398438	13.64564704895047	787.7136840820312	1127.390014648438	3.026998758316291	739.907470703125	1118.74951171875	-67.1642684936521	931.2647094726562	982.5382080078125	-46.89953231811501	974.5523681640625	935.1123046875	-102.8944549560545	929.639892578125	887.9863891601562	-52.64398193359355	1020.030700683594	850.9407958984375	-62.11427307128887	735.7232055664062	1483.226440429688	-442.3900146484372	692.8474731445312	1319.950317382813	-539.8771362304684	748.5285034179688	1235.414306640625	-550.525451660156	624.8848266601562	1247.176513671875	-557.953918457031	676.7327270507812	1138.846801757813	-574.739807128906	628.97607421875	1136.502319335938	-511.4191284179685	771.7315063476562	958.7756347656251	-578.7521362304685	809.5910034179688	897.1066284179689	-533.516418457031	753.4592895507812	876.7256469726564	-588.2348632812498	831.8618774414062	823.6513061523439	-589.6488647460935	743.7471313476562	1076.066040039062	-114.1818084716794	614.38720703125	1048.26806640625	-284.349914550781	730.2824096679688	1076.426879882812	-456.1909179687498	686.4371948242188	937.0866088867188	-103.0964202880857	667.3047485351562	661.8948364257812	-130.5855560302733	725.6848754882812	666.5753784179688	-124.5390701293944	710.864990234375	566.3904418945312	-161.7456970214843	648.6586303710938	584.1244506835938	-153.6332244873045	581.93701171875	357.7976989746094	-162.2982025146484	633.4440307617188	329.1366271972657	-175.430206298828	616.0516357421875	247.4717559814454	-197.8563842773437	554.3524169921875	263.7659301757813	-190.0589904785156	485.9446105957031	65.93878936767584	-284.9927673339844	639.67529296875	18.53007125854496	-190.7844085693359	702.7374267578125	31.54989433288581	-287.0056457519531	709.1956787109375	958.3402099609376	-467.7787475585935	899.3307495117188	707.2984008789064	-461.989532470703	843.0914916992188	706.6862792968751	-481.1278076171873	863.6378173828125	604.5756835937501	-453.9439086914061	922.7246704101562	629.0699462890626	-440.3096923828124	900.1103515625	347.6784973144532	-445.1844177246093	842.1300659179688	328.7020568847657	-443.4296264648437	837.3370361328125	242.6646270751954	-426.8319396972656	901.6691284179688	246.0508880615235	-423.9064331054687	801.2492065429688	50.78416442871102	-351.96826171875	969.68310546875	35.31497573852549	-433.790283203125	1010.465148925781	51.10596084594734	-343.2615966796875	
